<svg width="192" height="176" viewBox="0 0 192 176" fill="none" xmlns="http://www.w3.org/2000/svg">
<circle cx="96" cy="67" r="15.5" stroke="#008000"/>
<circle cx="96" cy="67" r="12.5" stroke="#FF0000"/>
<circle cx="129" cy="34" r="23.5" stroke="#0000FF"/>
<circle cx="63" cy="34" r="23.5" stroke="#0000FF"/>
<circle cx="63" cy="100" r="23.5" stroke="#0000FF"/>
<circle cx="129" cy="100" r="23.5" stroke="#0000FF"/>
<line x1="113" y1="67" x2="153" y2="67" stroke="#0000FF" stroke-width="4"/>
<line x1="96" y1="50" x2="96" y2="10" stroke="#0000FF" stroke-width="4"/>
<line x1="96" y1="124" x2="96" y2="84" stroke="#0000FF" stroke-width="4"/>
<line x1="39" y1="67" x2="79" y2="67" stroke="#0000FF" stroke-width="4"/>
<path d="M19.4549 135.165H16.0499V144H13.9949V135.165H10.5899V133.35H19.4549V135.165ZM22.7475 144.15C22.1175 144.15 21.5475 144.045 21.0375 143.835C20.5275 143.615 20.0925 143.32 19.7325 142.95C19.3725 142.57 19.0925 142.14 18.8925 141.66C18.7025 141.17 18.6075 140.655 18.6075 140.115C18.6075 139.365 18.7725 138.68 19.1025 138.06C19.4425 137.44 19.9225 136.945 20.5425 136.575C21.1725 136.195 21.9125 136.005 22.7625 136.005C23.6225 136.005 24.3575 136.195 24.9675 136.575C25.5775 136.945 26.0425 137.44 26.3625 138.06C26.6925 138.67 26.8575 139.33 26.8575 140.04C26.8575 140.16 26.8525 140.285 26.8425 140.415C26.8325 140.535 26.8225 140.635 26.8125 140.715H20.7375C20.7775 141.115 20.8925 141.465 21.0825 141.765C21.2825 142.065 21.5325 142.295 21.8325 142.455C22.1425 142.605 22.4725 142.68 22.8225 142.68C23.2225 142.68 23.5975 142.585 23.9475 142.395C24.3075 142.195 24.5525 141.935 24.6825 141.615L26.4075 142.095C26.2175 142.495 25.9425 142.85 25.5825 143.16C25.2325 143.47 24.8175 143.715 24.3375 143.895C23.8575 144.065 23.3275 144.15 22.7475 144.15ZM20.6925 139.44H24.8025C24.7625 139.04 24.6475 138.695 24.4575 138.405C24.2775 138.105 24.0375 137.875 23.7375 137.715C23.4375 137.545 23.1025 137.46 22.7325 137.46C22.3725 137.46 22.0425 137.545 21.7425 137.715C21.4525 137.875 21.2125 138.105 21.0225 138.405C20.8425 138.695 20.7325 139.04 20.6925 139.44ZM30.977 144.15C30.307 144.15 29.667 144.04 29.057 143.82C28.447 143.6 27.922 143.275 27.482 142.845L28.202 141.54C28.672 141.92 29.132 142.2 29.582 142.38C30.042 142.56 30.482 142.65 30.902 142.65C31.292 142.65 31.602 142.58 31.832 142.44C32.072 142.3 32.192 142.09 32.192 141.81C32.192 141.62 32.127 141.475 31.997 141.375C31.867 141.265 31.677 141.17 31.427 141.09C31.187 141.01 30.892 140.92 30.542 140.82C29.962 140.63 29.477 140.445 29.087 140.265C28.697 140.085 28.402 139.86 28.202 139.59C28.012 139.31 27.917 138.955 27.917 138.525C27.917 138.005 28.047 137.56 28.307 137.19C28.577 136.81 28.947 136.515 29.417 136.305C29.897 136.095 30.457 135.99 31.097 135.99C31.657 135.99 32.187 136.08 32.687 136.26C33.187 136.43 33.642 136.71 34.052 137.1L33.242 138.375C32.842 138.065 32.462 137.84 32.102 137.7C31.742 137.55 31.377 137.475 31.007 137.475C30.797 137.475 30.597 137.5 30.407 137.55C30.227 137.6 30.077 137.685 29.957 137.805C29.847 137.915 29.792 138.075 29.792 138.285C29.792 138.475 29.842 138.625 29.942 138.735C30.052 138.835 30.212 138.925 30.422 139.005C30.642 139.085 30.907 139.175 31.217 139.275C31.847 139.455 32.377 139.64 32.807 139.83C33.247 140.02 33.577 140.255 33.797 140.535C34.017 140.805 34.127 141.18 34.127 141.66C34.127 142.44 33.842 143.05 33.272 143.49C32.702 143.93 31.937 144.15 30.977 144.15ZM40.1602 143.595C39.9902 143.665 39.7852 143.745 39.5452 143.835C39.3052 143.925 39.0452 143.995 38.7652 144.045C38.4952 144.105 38.2202 144.135 37.9402 144.135C37.5702 144.135 37.2302 144.07 36.9202 143.94C36.6102 143.81 36.3602 143.605 36.1702 143.325C35.9902 143.035 35.9002 142.66 35.9002 142.2V137.685H34.8652V136.14H35.9002V133.59H37.9102V136.14H39.5602V137.685H37.9102V141.525C37.9202 141.795 37.9952 141.99 38.1352 142.11C38.2752 142.23 38.4502 142.29 38.6602 142.29C38.8702 142.29 39.0752 142.255 39.2752 142.185C39.4752 142.115 39.6352 142.055 39.7552 142.005L40.1602 143.595ZM41.207 144V136.14H43.217V144H41.207ZM41.207 135.045V133.05H43.217V135.045H41.207ZM52.3352 144H50.3252V139.59C50.3252 138.96 50.2152 138.5 49.9952 138.21C49.7752 137.92 49.4702 137.775 49.0802 137.775C48.8102 137.775 48.5352 137.845 48.2552 137.985C47.9852 138.125 47.7402 138.32 47.5202 138.57C47.3002 138.81 47.1402 139.09 47.0402 139.41V144H45.0302V136.14H46.8452V137.595C47.0452 137.255 47.3002 136.97 47.6102 136.74C47.9202 136.5 48.2752 136.32 48.6752 136.2C49.0852 136.07 49.5152 136.005 49.9652 136.005C50.4552 136.005 50.8552 136.095 51.1652 136.275C51.4852 136.445 51.7252 136.68 51.8852 136.98C52.0552 137.27 52.1702 137.6 52.2302 137.97C52.3002 138.34 52.3352 138.715 52.3352 139.095V144ZM57.158 144.045C56.638 144.045 56.158 143.945 55.718 143.745C55.288 143.535 54.913 143.245 54.593 142.875C54.283 142.505 54.043 142.08 53.873 141.6C53.703 141.12 53.618 140.61 53.618 140.07C53.618 139.5 53.708 138.97 53.888 138.48C54.068 137.99 54.318 137.56 54.638 137.19C54.968 136.81 55.353 136.52 55.793 136.32C56.243 136.11 56.738 136.005 57.278 136.005C57.888 136.005 58.423 136.145 58.883 136.425C59.343 136.695 59.723 137.06 60.023 137.52V136.14H61.778V143.625C61.778 144.405 61.588 145.07 61.208 145.62C60.838 146.18 60.323 146.605 59.663 146.895C59.003 147.195 58.253 147.345 57.413 147.345C56.563 147.345 55.843 147.2 55.253 146.91C54.663 146.63 54.158 146.23 53.738 145.71L54.833 144.645C55.133 145.015 55.508 145.305 55.958 145.515C56.418 145.725 56.903 145.83 57.413 145.83C57.843 145.83 58.233 145.75 58.583 145.59C58.943 145.44 59.228 145.2 59.438 144.87C59.658 144.55 59.768 144.135 59.768 143.625V142.635C59.508 143.085 59.138 143.435 58.658 143.685C58.188 143.925 57.688 144.045 57.158 144.045ZM57.833 142.44C58.053 142.44 58.263 142.405 58.463 142.335C58.663 142.265 58.848 142.17 59.018 142.05C59.188 141.93 59.338 141.79 59.468 141.63C59.598 141.46 59.698 141.29 59.768 141.12V139.245C59.648 138.935 59.478 138.665 59.258 138.435C59.048 138.205 58.808 138.03 58.538 137.91C58.278 137.78 58.003 137.715 57.713 137.715C57.403 137.715 57.123 137.78 56.873 137.91C56.623 138.04 56.408 138.225 56.228 138.465C56.048 138.695 55.908 138.955 55.808 139.245C55.718 139.525 55.673 139.82 55.673 140.13C55.673 140.45 55.728 140.75 55.838 141.03C55.948 141.31 56.098 141.555 56.288 141.765C56.488 141.975 56.718 142.14 56.978 142.26C57.248 142.38 57.533 142.44 57.833 142.44ZM63.7698 145.725L64.1748 143.94H63.5448V141.84H65.2848V143.94L64.6698 145.725H63.7698ZM75.4196 144.075C74.6396 144.075 73.9296 143.925 73.2896 143.625C72.6596 143.315 72.1146 142.905 71.6546 142.395C71.2046 141.885 70.8546 141.31 70.6046 140.67C70.3546 140.02 70.2296 139.355 70.2296 138.675C70.2296 137.965 70.3596 137.29 70.6196 136.65C70.8896 136 71.2546 135.425 71.7146 134.925C72.1846 134.415 72.7346 134.015 73.3646 133.725C74.0046 133.425 74.7046 133.275 75.4646 133.275C76.2346 133.275 76.9346 133.43 77.5646 133.74C78.2046 134.05 78.7496 134.465 79.1996 134.985C79.6496 135.505 79.9996 136.085 80.2496 136.725C80.4996 137.365 80.6246 138.025 80.6246 138.705C80.6246 139.405 80.4946 140.08 80.2346 140.73C79.9746 141.37 79.6096 141.945 79.1396 142.455C78.6796 142.955 78.1296 143.35 77.4896 143.64C76.8596 143.93 76.1696 144.075 75.4196 144.075ZM75.4346 142.245C75.9346 142.245 76.3796 142.145 76.7696 141.945C77.1596 141.735 77.4846 141.46 77.7446 141.12C78.0046 140.77 78.1996 140.385 78.3296 139.965C78.4696 139.535 78.5396 139.105 78.5396 138.675C78.5396 138.215 78.4646 137.77 78.3146 137.34C78.1746 136.91 77.9696 136.53 77.6996 136.2C77.4396 135.87 77.1146 135.605 76.7246 135.405C76.3446 135.205 75.9146 135.105 75.4346 135.105C74.9246 135.105 74.4746 135.21 74.0846 135.42C73.7046 135.62 73.3846 135.895 73.1246 136.245C72.8646 136.585 72.6646 136.965 72.5246 137.385C72.3946 137.805 72.3296 138.235 72.3296 138.675C72.3296 139.135 72.3996 139.58 72.5396 140.01C72.6796 140.44 72.8796 140.82 73.1396 141.15C73.4096 141.48 73.7346 141.745 74.1146 141.945C74.5046 142.145 74.9446 142.245 75.4346 142.245ZM75.2246 140.055H77.1746L80.6846 144H78.7346L75.2246 140.055ZM81.9279 141.06V136.14H83.9379V140.625C83.9379 141.225 84.0479 141.68 84.2679 141.99C84.4879 142.29 84.8129 142.44 85.2429 142.44C85.5029 142.44 85.7579 142.39 86.0079 142.29C86.2679 142.18 86.5029 142.02 86.7129 141.81C86.9329 141.6 87.1179 141.335 87.2679 141.015V136.14H89.2779V141.75C89.2779 141.96 89.3129 142.11 89.3829 142.2C89.4629 142.29 89.5879 142.345 89.7579 142.365V144C89.5579 144.03 89.3879 144.05 89.2479 144.06C89.1179 144.08 88.9979 144.09 88.8879 144.09C88.5279 144.09 88.2329 144.01 88.0029 143.85C87.7829 143.68 87.6529 143.45 87.6129 143.16L87.5679 142.53C87.2179 143.06 86.7679 143.465 86.2179 143.745C85.6679 144.015 85.0629 144.15 84.4029 144.15C83.5929 144.15 82.9779 143.89 82.5579 143.37C82.1379 142.84 81.9279 142.07 81.9279 141.06ZM90.7354 141.675C90.7354 141.165 90.8754 140.72 91.1554 140.34C91.4454 139.95 91.8454 139.65 92.3554 139.44C92.8654 139.23 93.4504 139.125 94.1104 139.125C94.4404 139.125 94.7754 139.15 95.1154 139.2C95.4554 139.25 95.7504 139.33 96.0004 139.44V139.02C96.0004 138.52 95.8504 138.135 95.5504 137.865C95.2604 137.595 94.8254 137.46 94.2454 137.46C93.8154 137.46 93.4054 137.535 93.0154 137.685C92.6254 137.835 92.2154 138.055 91.7854 138.345L91.1404 137.025C91.6604 136.685 92.1904 136.43 92.7304 136.26C93.2804 136.09 93.8554 136.005 94.4554 136.005C95.5754 136.005 96.4454 136.285 97.0654 136.845C97.6954 137.405 98.0104 138.205 98.0104 139.245V141.75C98.0104 141.96 98.0454 142.11 98.1154 142.2C98.1954 142.29 98.3204 142.345 98.4904 142.365V144C98.3104 144.03 98.1454 144.055 97.9954 144.075C97.8554 144.095 97.7354 144.105 97.6354 144.105C97.2354 144.105 96.9304 144.015 96.7204 143.835C96.5204 143.655 96.3954 143.435 96.3454 143.175L96.3004 142.77C95.9604 143.21 95.5354 143.55 95.0254 143.79C94.5154 144.03 93.9954 144.15 93.4654 144.15C92.9454 144.15 92.4754 144.045 92.0554 143.835C91.6454 143.615 91.3204 143.32 91.0804 142.95C90.8504 142.57 90.7354 142.145 90.7354 141.675ZM95.6254 142.08C95.7354 141.96 95.8254 141.84 95.8954 141.72C95.9654 141.6 96.0004 141.49 96.0004 141.39V140.595C95.7604 140.495 95.5004 140.42 95.2204 140.37C94.9404 140.31 94.6754 140.28 94.4254 140.28C93.9054 140.28 93.4754 140.395 93.1354 140.625C92.8054 140.845 92.6404 141.14 92.6404 141.51C92.6404 141.71 92.6954 141.9 92.8054 142.08C92.9154 142.26 93.0754 142.405 93.2854 142.515C93.4954 142.625 93.7454 142.68 94.0354 142.68C94.3354 142.68 94.6304 142.625 94.9204 142.515C95.2104 142.395 95.4454 142.25 95.6254 142.08ZM99.8736 133.05H101.884V141.48C101.884 141.84 101.944 142.085 102.064 142.215C102.184 142.335 102.349 142.395 102.559 142.395C102.719 142.395 102.884 142.375 103.054 142.335C103.224 142.295 103.374 142.245 103.504 142.185L103.774 143.715C103.504 143.845 103.189 143.945 102.829 144.015C102.469 144.085 102.144 144.12 101.854 144.12C101.224 144.12 100.734 143.955 100.384 143.625C100.044 143.285 99.8736 142.805 99.8736 142.185V133.05ZM104.649 144V136.14H106.659V144H104.649ZM104.649 135.045V133.05H106.659V135.045H104.649ZM113.183 143.595C113.013 143.665 112.808 143.745 112.568 143.835C112.328 143.925 112.068 143.995 111.788 144.045C111.518 144.105 111.243 144.135 110.963 144.135C110.593 144.135 110.253 144.07 109.943 143.94C109.633 143.81 109.383 143.605 109.193 143.325C109.013 143.035 108.923 142.66 108.923 142.2V137.685H107.888V136.14H108.923V133.59H110.933V136.14H112.583V137.685H110.933V141.525C110.943 141.795 111.018 141.99 111.158 142.11C111.298 142.23 111.473 142.29 111.683 142.29C111.893 142.29 112.098 142.255 112.298 142.185C112.498 142.115 112.658 142.055 112.778 142.005L113.183 143.595ZM114.365 145.53C114.545 145.57 114.71 145.605 114.86 145.635C115.02 145.665 115.155 145.68 115.265 145.68C115.455 145.68 115.61 145.63 115.73 145.53C115.86 145.44 115.985 145.27 116.105 145.02C116.225 144.78 116.35 144.44 116.48 144L113.375 136.14H115.46L117.575 141.945L119.435 136.14H121.355L118.055 145.56C117.935 145.91 117.75 146.225 117.5 146.505C117.26 146.795 116.955 147.02 116.585 147.18C116.225 147.35 115.82 147.435 115.37 147.435C115.21 147.435 115.05 147.42 114.89 147.39C114.73 147.37 114.555 147.33 114.365 147.27V145.53ZM125.22 138.6C125.22 137.95 125.335 137.315 125.565 136.695C125.805 136.065 126.15 135.495 126.6 134.985C127.05 134.465 127.6 134.055 128.25 133.755C128.9 133.445 129.64 133.29 130.47 133.29C131.45 133.29 132.295 133.505 133.005 133.935C133.725 134.365 134.26 134.925 134.61 135.615L133.02 136.71C132.84 136.31 132.605 135.995 132.315 135.765C132.025 135.525 131.715 135.36 131.385 135.27C131.055 135.17 130.73 135.12 130.41 135.12C129.89 135.12 129.435 135.225 129.045 135.435C128.665 135.645 128.345 135.92 128.085 136.26C127.825 136.6 127.63 136.98 127.5 137.4C127.38 137.82 127.32 138.24 127.32 138.66C127.32 139.13 127.395 139.585 127.545 140.025C127.695 140.455 127.905 140.84 128.175 141.18C128.455 141.51 128.785 141.775 129.165 141.975C129.555 142.165 129.98 142.26 130.44 142.26C130.77 142.26 131.105 142.205 131.445 142.095C131.785 141.985 132.1 141.81 132.39 141.57C132.68 141.33 132.905 141.02 133.065 140.64L134.76 141.615C134.55 142.145 134.205 142.595 133.725 142.965C133.255 143.335 132.725 143.615 132.135 143.805C131.545 143.995 130.96 144.09 130.38 144.09C129.62 144.09 128.925 143.935 128.295 143.625C127.665 143.305 127.12 142.885 126.66 142.365C126.21 141.835 125.855 141.245 125.595 140.595C125.345 139.935 125.22 139.27 125.22 138.6ZM139.554 144.15C138.914 144.15 138.339 144.045 137.829 143.835C137.319 143.615 136.884 143.315 136.524 142.935C136.174 142.555 135.904 142.12 135.714 141.63C135.524 141.14 135.429 140.625 135.429 140.085C135.429 139.535 135.524 139.015 135.714 138.525C135.904 138.035 136.174 137.6 136.524 137.22C136.884 136.84 137.319 136.545 137.829 136.335C138.339 136.115 138.914 136.005 139.554 136.005C140.194 136.005 140.764 136.115 141.264 136.335C141.774 136.545 142.209 136.84 142.569 137.22C142.929 137.6 143.199 138.035 143.379 138.525C143.569 139.015 143.664 139.535 143.664 140.085C143.664 140.625 143.569 141.14 143.379 141.63C143.199 142.12 142.929 142.555 142.569 142.935C142.219 143.315 141.789 143.615 141.279 143.835C140.769 144.045 140.194 144.15 139.554 144.15ZM137.499 140.085C137.499 140.545 137.589 140.955 137.769 141.315C137.949 141.665 138.194 141.94 138.504 142.14C138.814 142.34 139.164 142.44 139.554 142.44C139.934 142.44 140.279 142.34 140.589 142.14C140.899 141.93 141.144 141.65 141.324 141.3C141.514 140.94 141.609 140.53 141.609 140.07C141.609 139.62 141.514 139.215 141.324 138.855C141.144 138.495 140.899 138.215 140.589 138.015C140.279 137.815 139.934 137.715 139.554 137.715C139.164 137.715 138.814 137.82 138.504 138.03C138.194 138.23 137.949 138.51 137.769 138.87C137.589 139.22 137.499 139.625 137.499 140.085ZM152.325 144H150.315V139.59C150.315 138.96 150.205 138.5 149.985 138.21C149.765 137.92 149.46 137.775 149.07 137.775C148.8 137.775 148.525 137.845 148.245 137.985C147.975 138.125 147.73 138.32 147.51 138.57C147.29 138.81 147.13 139.09 147.03 139.41V144H145.02V136.14H146.835V137.595C147.035 137.255 147.29 136.97 147.6 136.74C147.91 136.5 148.265 136.32 148.665 136.2C149.075 136.07 149.505 136.005 149.955 136.005C150.445 136.005 150.845 136.095 151.155 136.275C151.475 136.445 151.715 136.68 151.875 136.98C152.045 137.27 152.16 137.6 152.22 137.97C152.29 138.34 152.325 138.715 152.325 139.095V144ZM158.739 143.595C158.569 143.665 158.364 143.745 158.124 143.835C157.884 143.925 157.624 143.995 157.344 144.045C157.074 144.105 156.799 144.135 156.519 144.135C156.149 144.135 155.809 144.07 155.499 143.94C155.189 143.81 154.939 143.605 154.749 143.325C154.569 143.035 154.479 142.66 154.479 142.2V137.685H153.444V136.14H154.479V133.59H156.489V136.14H158.139V137.685H156.489V141.525C156.499 141.795 156.574 141.99 156.714 142.11C156.854 142.23 157.029 142.29 157.239 142.29C157.449 142.29 157.654 142.255 157.854 142.185C158.054 142.115 158.214 142.055 158.334 142.005L158.739 143.595ZM164.466 137.88C163.856 137.88 163.311 138 162.831 138.24C162.351 138.47 162.006 138.805 161.796 139.245V144H159.786V136.14H161.631V137.82C161.911 137.28 162.266 136.855 162.696 136.545C163.126 136.235 163.581 136.065 164.061 136.035C164.171 136.035 164.256 136.035 164.316 136.035C164.376 136.035 164.426 136.04 164.466 136.05V137.88ZM169.114 144.15C168.474 144.15 167.899 144.045 167.389 143.835C166.879 143.615 166.444 143.315 166.084 142.935C165.734 142.555 165.464 142.12 165.274 141.63C165.084 141.14 164.989 140.625 164.989 140.085C164.989 139.535 165.084 139.015 165.274 138.525C165.464 138.035 165.734 137.6 166.084 137.22C166.444 136.84 166.879 136.545 167.389 136.335C167.899 136.115 168.474 136.005 169.114 136.005C169.754 136.005 170.324 136.115 170.824 136.335C171.334 136.545 171.769 136.84 172.129 137.22C172.489 137.6 172.759 138.035 172.939 138.525C173.129 139.015 173.224 139.535 173.224 140.085C173.224 140.625 173.129 141.14 172.939 141.63C172.759 142.12 172.489 142.555 172.129 142.935C171.779 143.315 171.349 143.615 170.839 143.835C170.329 144.045 169.754 144.15 169.114 144.15ZM167.059 140.085C167.059 140.545 167.149 140.955 167.329 141.315C167.509 141.665 167.754 141.94 168.064 142.14C168.374 142.34 168.724 142.44 169.114 142.44C169.494 142.44 169.839 142.34 170.149 142.14C170.459 141.93 170.704 141.65 170.884 141.3C171.074 140.94 171.169 140.53 171.169 140.07C171.169 139.62 171.074 139.215 170.884 138.855C170.704 138.495 170.459 138.215 170.149 138.015C169.839 137.815 169.494 137.715 169.114 137.715C168.724 137.715 168.374 137.82 168.064 138.03C167.754 138.23 167.509 138.51 167.329 138.87C167.149 139.22 167.059 139.625 167.059 140.085ZM174.566 133.05H176.576V141.48C176.576 141.84 176.636 142.085 176.756 142.215C176.876 142.335 177.041 142.395 177.251 142.395C177.411 142.395 177.576 142.375 177.746 142.335C177.916 142.295 178.066 142.245 178.196 142.185L178.466 143.715C178.196 143.845 177.881 143.945 177.521 144.015C177.161 144.085 176.836 144.12 176.546 144.12C175.916 144.12 175.426 143.955 175.076 143.625C174.736 143.285 174.566 142.805 174.566 142.185V133.05ZM52.9609 162L47.9509 156.69C47.5309 156.24 47.1909 155.855 46.9309 155.535C46.6809 155.205 46.5009 154.905 46.3909 154.635C46.2809 154.365 46.2259 154.075 46.2259 153.765C46.2259 153.255 46.3509 152.81 46.6009 152.43C46.8609 152.04 47.2109 151.74 47.6509 151.53C48.1009 151.32 48.6009 151.215 49.1509 151.215C49.6509 151.215 50.1109 151.305 50.5309 151.485C50.9609 151.655 51.3109 151.915 51.5809 152.265C51.8509 152.615 51.9859 153.05 51.9859 153.57C51.9859 154.04 51.8659 154.465 51.6259 154.845C51.3959 155.225 51.0859 155.575 50.6959 155.895C50.3059 156.215 49.8659 156.525 49.3759 156.825C49.0159 157.055 48.6859 157.28 48.3859 157.5C48.0959 157.72 47.8659 157.955 47.6959 158.205C47.5359 158.445 47.4559 158.71 47.4559 159C47.4559 159.28 47.5359 159.54 47.6959 159.78C47.8559 160.02 48.0759 160.215 48.3559 160.365C48.6459 160.505 48.9659 160.575 49.3159 160.575C49.7459 160.575 50.1609 160.47 50.5609 160.26C50.9709 160.05 51.3359 159.755 51.6559 159.375C51.9759 158.985 52.2259 158.52 52.4059 157.98C52.5959 157.44 52.6909 156.835 52.6909 156.165H54.3259C54.3259 157.115 54.1809 157.96 53.8909 158.7C53.6009 159.43 53.2109 160.055 52.7209 160.575C52.2309 161.085 51.6759 161.475 51.0559 161.745C50.4359 162.015 49.7909 162.15 49.1209 162.15C48.3909 162.15 47.7559 162.005 47.2159 161.715C46.6759 161.415 46.2559 161.025 45.9559 160.545C45.6659 160.065 45.5209 159.545 45.5209 158.985C45.5209 158.425 45.6509 157.935 45.9109 157.515C46.1709 157.095 46.5009 156.725 46.9009 156.405C47.3009 156.075 47.7009 155.785 48.1009 155.535C48.5409 155.255 48.9109 155.02 49.2109 154.83C49.5109 154.63 49.7409 154.435 49.9009 154.245C50.0609 154.045 50.1409 153.83 50.1409 153.6C50.1409 153.33 50.0459 153.115 49.8559 152.955C49.6759 152.785 49.4409 152.7 49.1509 152.7C48.9309 152.7 48.7359 152.745 48.5659 152.835C48.4059 152.925 48.2809 153.045 48.1909 153.195C48.1009 153.345 48.0559 153.515 48.0559 153.705C48.0559 153.845 48.0959 153.985 48.1759 154.125C48.2659 154.265 48.4159 154.45 48.6259 154.68C48.8459 154.9 49.1459 155.215 49.5259 155.625L55.6009 162H52.9609ZM59.6681 156.6C59.6681 155.95 59.7831 155.315 60.0131 154.695C60.2531 154.065 60.5981 153.495 61.0481 152.985C61.4981 152.465 62.0481 152.055 62.6981 151.755C63.3481 151.445 64.0881 151.29 64.9181 151.29C65.8981 151.29 66.7431 151.505 67.4531 151.935C68.1731 152.365 68.7081 152.925 69.0581 153.615L67.4681 154.71C67.2881 154.31 67.0531 153.995 66.7631 153.765C66.4731 153.525 66.1631 153.36 65.8331 153.27C65.5031 153.17 65.1781 153.12 64.8581 153.12C64.3381 153.12 63.8831 153.225 63.4931 153.435C63.1131 153.645 62.7931 153.92 62.5331 154.26C62.2731 154.6 62.0781 154.98 61.9481 155.4C61.8281 155.82 61.7681 156.24 61.7681 156.66C61.7681 157.13 61.8431 157.585 61.9931 158.025C62.1431 158.455 62.3531 158.84 62.6231 159.18C62.9031 159.51 63.2331 159.775 63.6131 159.975C64.0031 160.165 64.4281 160.26 64.8881 160.26C65.2181 160.26 65.5531 160.205 65.8931 160.095C66.2331 159.985 66.5481 159.81 66.8381 159.57C67.1281 159.33 67.3531 159.02 67.5131 158.64L69.2081 159.615C68.9981 160.145 68.6531 160.595 68.1731 160.965C67.7031 161.335 67.1731 161.615 66.5831 161.805C65.9931 161.995 65.4081 162.09 64.8281 162.09C64.0681 162.09 63.3731 161.935 62.7431 161.625C62.1131 161.305 61.5681 160.885 61.1081 160.365C60.6581 159.835 60.3031 159.245 60.0431 158.595C59.7931 157.935 59.6681 157.27 59.6681 156.6ZM74.017 162.15C73.387 162.15 72.817 162.045 72.307 161.835C71.797 161.615 71.362 161.32 71.002 160.95C70.642 160.57 70.362 160.14 70.162 159.66C69.972 159.17 69.877 158.655 69.877 158.115C69.877 157.365 70.042 156.68 70.372 156.06C70.712 155.44 71.192 154.945 71.812 154.575C72.442 154.195 73.182 154.005 74.032 154.005C74.892 154.005 75.627 154.195 76.237 154.575C76.847 154.945 77.312 155.44 77.632 156.06C77.962 156.67 78.127 157.33 78.127 158.04C78.127 158.16 78.122 158.285 78.112 158.415C78.102 158.535 78.092 158.635 78.082 158.715H72.007C72.047 159.115 72.162 159.465 72.352 159.765C72.552 160.065 72.802 160.295 73.102 160.455C73.412 160.605 73.742 160.68 74.092 160.68C74.492 160.68 74.867 160.585 75.217 160.395C75.577 160.195 75.822 159.935 75.952 159.615L77.677 160.095C77.487 160.495 77.212 160.85 76.852 161.16C76.502 161.47 76.087 161.715 75.607 161.895C75.127 162.065 74.597 162.15 74.017 162.15ZM71.962 157.44H76.072C76.032 157.04 75.917 156.695 75.727 156.405C75.547 156.105 75.307 155.875 75.007 155.715C74.707 155.545 74.372 155.46 74.002 155.46C73.642 155.46 73.312 155.545 73.012 155.715C72.722 155.875 72.482 156.105 72.292 156.405C72.112 156.695 72.002 157.04 71.962 157.44ZM84.0315 155.88C83.4215 155.88 82.8765 156 82.3965 156.24C81.9165 156.47 81.5715 156.805 81.3615 157.245V162H79.3515V154.14H81.1965V155.82C81.4765 155.28 81.8315 154.855 82.2615 154.545C82.6915 154.235 83.1465 154.065 83.6265 154.035C83.7365 154.035 83.8215 154.035 83.8815 154.035C83.9415 154.035 83.9915 154.04 84.0315 154.05V155.88ZM89.8623 161.595C89.6923 161.665 89.4873 161.745 89.2473 161.835C89.0073 161.925 88.7473 161.995 88.4673 162.045C88.1973 162.105 87.9223 162.135 87.6423 162.135C87.2723 162.135 86.9323 162.07 86.6223 161.94C86.3123 161.81 86.0623 161.605 85.8723 161.325C85.6923 161.035 85.6023 160.66 85.6023 160.2V155.685H84.5673V154.14H85.6023V151.59H87.6123V154.14H89.2623V155.685H87.6123V159.525C87.6223 159.795 87.6973 159.99 87.8373 160.11C87.9773 160.23 88.1523 160.29 88.3623 160.29C88.5723 160.29 88.7773 160.255 88.9773 160.185C89.1773 160.115 89.3373 160.055 89.4573 160.005L89.8623 161.595ZM90.9091 162V154.14H92.9191V162H90.9091ZM90.9091 153.045V151.05H92.9191V153.045H90.9091ZM95.2124 156.09H94.1774V154.56H95.2124V154.08C95.2124 153.64 95.2824 153.23 95.4224 152.85C95.5724 152.47 95.7824 152.135 96.0524 151.845C96.3324 151.545 96.6674 151.315 97.0574 151.155C97.4574 150.985 97.9074 150.9 98.4074 150.9C98.7874 150.9 99.1424 150.94 99.4724 151.02C99.8124 151.1 100.132 151.215 100.432 151.365C100.742 151.515 101.037 151.685 101.317 151.875L100.522 153.375C100.262 153.145 99.9574 152.96 99.6074 152.82C99.2574 152.68 98.9024 152.61 98.5424 152.61C98.2524 152.61 98.0074 152.675 97.8074 152.805C97.6074 152.935 97.4574 153.105 97.3574 153.315C97.2674 153.525 97.2224 153.755 97.2224 154.005V154.56H101.437V162H99.4274V156.09H97.2224V162H95.2124V156.09ZM106.918 162.15C106.278 162.15 105.703 162.045 105.193 161.835C104.683 161.615 104.248 161.315 103.888 160.935C103.528 160.545 103.248 160.105 103.048 159.615C102.858 159.125 102.763 158.61 102.763 158.07C102.763 157.33 102.928 156.655 103.258 156.045C103.598 155.425 104.078 154.93 104.698 154.56C105.318 154.19 106.053 154.005 106.903 154.005C107.753 154.005 108.483 154.19 109.093 154.56C109.703 154.93 110.158 155.415 110.458 156.015L108.493 156.615C108.323 156.325 108.098 156.105 107.818 155.955C107.538 155.795 107.228 155.715 106.888 155.715C106.508 155.715 106.158 155.815 105.838 156.015C105.528 156.205 105.283 156.48 105.103 156.84C104.923 157.19 104.833 157.6 104.833 158.07C104.833 158.53 104.923 158.94 105.103 159.3C105.293 159.65 105.543 159.93 105.853 160.14C106.163 160.34 106.508 160.44 106.888 160.44C107.128 160.44 107.353 160.4 107.563 160.32C107.783 160.24 107.978 160.13 108.148 159.99C108.318 159.85 108.443 159.69 108.523 159.51L110.488 160.11C110.308 160.5 110.043 160.85 109.693 161.16C109.353 161.47 108.948 161.715 108.478 161.895C108.018 162.065 107.498 162.15 106.918 162.15ZM111.185 159.675C111.185 159.165 111.325 158.72 111.605 158.34C111.895 157.95 112.295 157.65 112.805 157.44C113.315 157.23 113.9 157.125 114.56 157.125C114.89 157.125 115.225 157.15 115.565 157.2C115.905 157.25 116.2 157.33 116.45 157.44V157.02C116.45 156.52 116.3 156.135 116 155.865C115.71 155.595 115.275 155.46 114.695 155.46C114.265 155.46 113.855 155.535 113.465 155.685C113.075 155.835 112.665 156.055 112.235 156.345L111.59 155.025C112.11 154.685 112.64 154.43 113.18 154.26C113.73 154.09 114.305 154.005 114.905 154.005C116.025 154.005 116.895 154.285 117.515 154.845C118.145 155.405 118.46 156.205 118.46 157.245V159.75C118.46 159.96 118.495 160.11 118.565 160.2C118.645 160.29 118.77 160.345 118.94 160.365V162C118.76 162.03 118.595 162.055 118.445 162.075C118.305 162.095 118.185 162.105 118.085 162.105C117.685 162.105 117.38 162.015 117.17 161.835C116.97 161.655 116.845 161.435 116.795 161.175L116.75 160.77C116.41 161.21 115.985 161.55 115.475 161.79C114.965 162.03 114.445 162.15 113.915 162.15C113.395 162.15 112.925 162.045 112.505 161.835C112.095 161.615 111.77 161.32 111.53 160.95C111.3 160.57 111.185 160.145 111.185 159.675ZM116.075 160.08C116.185 159.96 116.275 159.84 116.345 159.72C116.415 159.6 116.45 159.49 116.45 159.39V158.595C116.21 158.495 115.95 158.42 115.67 158.37C115.39 158.31 115.125 158.28 114.875 158.28C114.355 158.28 113.925 158.395 113.585 158.625C113.255 158.845 113.09 159.14 113.09 159.51C113.09 159.71 113.145 159.9 113.255 160.08C113.365 160.26 113.525 160.405 113.735 160.515C113.945 160.625 114.195 160.68 114.485 160.68C114.785 160.68 115.08 160.625 115.37 160.515C115.66 160.395 115.895 160.25 116.075 160.08ZM124.975 161.595C124.805 161.665 124.6 161.745 124.36 161.835C124.12 161.925 123.86 161.995 123.58 162.045C123.31 162.105 123.035 162.135 122.755 162.135C122.385 162.135 122.045 162.07 121.735 161.94C121.425 161.81 121.175 161.605 120.985 161.325C120.805 161.035 120.715 160.66 120.715 160.2V155.685H119.68V154.14H120.715V151.59H122.725V154.14H124.375V155.685H122.725V159.525C122.735 159.795 122.81 159.99 122.95 160.11C123.09 160.23 123.265 160.29 123.475 160.29C123.685 160.29 123.89 160.255 124.09 160.185C124.29 160.115 124.45 160.055 124.57 160.005L124.975 161.595ZM126.021 162V154.14H128.031V162H126.021ZM126.021 153.045V151.05H128.031V153.045H126.021ZM133.475 162.15C132.835 162.15 132.26 162.045 131.75 161.835C131.24 161.615 130.805 161.315 130.445 160.935C130.095 160.555 129.825 160.12 129.635 159.63C129.445 159.14 129.35 158.625 129.35 158.085C129.35 157.535 129.445 157.015 129.635 156.525C129.825 156.035 130.095 155.6 130.445 155.22C130.805 154.84 131.24 154.545 131.75 154.335C132.26 154.115 132.835 154.005 133.475 154.005C134.115 154.005 134.685 154.115 135.185 154.335C135.695 154.545 136.13 154.84 136.49 155.22C136.85 155.6 137.12 156.035 137.3 156.525C137.49 157.015 137.585 157.535 137.585 158.085C137.585 158.625 137.49 159.14 137.3 159.63C137.12 160.12 136.85 160.555 136.49 160.935C136.14 161.315 135.71 161.615 135.2 161.835C134.69 162.045 134.115 162.15 133.475 162.15ZM131.42 158.085C131.42 158.545 131.51 158.955 131.69 159.315C131.87 159.665 132.115 159.94 132.425 160.14C132.735 160.34 133.085 160.44 133.475 160.44C133.855 160.44 134.2 160.34 134.51 160.14C134.82 159.93 135.065 159.65 135.245 159.3C135.435 158.94 135.53 158.53 135.53 158.07C135.53 157.62 135.435 157.215 135.245 156.855C135.065 156.495 134.82 156.215 134.51 156.015C134.2 155.815 133.855 155.715 133.475 155.715C133.085 155.715 132.735 155.82 132.425 156.03C132.115 156.23 131.87 156.51 131.69 156.87C131.51 157.22 131.42 157.625 131.42 158.085ZM146.246 162H144.236V157.59C144.236 156.96 144.126 156.5 143.906 156.21C143.686 155.92 143.381 155.775 142.991 155.775C142.721 155.775 142.446 155.845 142.166 155.985C141.896 156.125 141.651 156.32 141.431 156.57C141.211 156.81 141.051 157.09 140.951 157.41V162H138.941V154.14H140.756V155.595C140.956 155.255 141.211 154.97 141.521 154.74C141.831 154.5 142.186 154.32 142.586 154.2C142.996 154.07 143.426 154.005 143.876 154.005C144.366 154.005 144.766 154.095 145.076 154.275C145.396 154.445 145.636 154.68 145.796 154.98C145.966 155.27 146.081 155.6 146.141 155.97C146.211 156.34 146.246 156.715 146.246 157.095V162Z" fill="black"/>
</svg>
