<svg width="54" height="54" viewBox="0 0 54 54" fill="none" xmlns="http://www.w3.org/2000/svg">
<path d="M13.5 31.05C14.625 31.05 15.5817 30.6567 16.3701 29.8701C17.1585 29.0835 17.5518 28.1268 17.55 27C17.5482 25.8732 17.1549 24.9174 16.3701 24.1326C15.5853 23.3478 14.6286 22.9536 13.5 22.95C12.3714 22.9464 11.4156 23.3406 10.6326 24.1326C9.8496 24.9246 9.4554 25.8804 9.45 27C9.4446 28.1196 9.8388 29.0763 10.6326 29.8701C11.4264 30.6639 12.3822 31.0572 13.5 31.05ZM27 31.05C28.125 31.05 29.0817 30.6567 29.8701 29.8701C30.6585 29.0835 31.0518 28.1268 31.05 27C31.0482 25.8732 30.6549 24.9174 29.8701 24.1326C29.0853 23.3478 28.1286 22.9536 27 22.95C25.8714 22.9464 24.9156 23.3406 24.1326 24.1326C23.3496 24.9246 22.9554 25.8804 22.95 27C22.9446 28.1196 23.3388 29.0763 24.1326 29.8701C24.9264 30.6639 25.8822 31.0572 27 31.05ZM40.5 31.05C41.625 31.05 42.5817 30.6567 43.3701 29.8701C44.1585 29.0835 44.5518 28.1268 44.55 27C44.5482 25.8732 44.1549 24.9174 43.3701 24.1326C42.5853 23.3478 41.6286 22.9536 40.5 22.95C39.3714 22.9464 38.4156 23.3406 37.6326 24.1326C36.8496 24.9246 36.4554 25.8804 36.45 27C36.4446 28.1196 36.8388 29.0763 37.6326 29.8701C38.4264 30.6639 39.3822 31.0572 40.5 31.05ZM27 54C23.265 54 19.755 53.2908 16.47 51.8724C13.185 50.454 10.3275 48.5307 7.8975 46.1025C5.4675 43.6743 3.5442 40.8168 2.1276 37.53C0.711003 34.2432 0.00180342 30.7332 3.41772e-06 27C-0.00179658 23.2668 0.707403 19.7568 2.1276 16.47C3.5478 13.1832 5.4711 10.3257 7.8975 7.8975C10.3239 5.4693 13.1814 3.546 16.47 2.1276C19.7586 0.7092 23.2686 0 27 0C30.7314 0 34.2414 0.7092 37.53 2.1276C40.8186 3.546 43.6761 5.4693 46.1025 7.8975C48.5289 10.3257 50.4531 13.1832 51.8751 16.47C53.2971 19.7568 54.0054 23.2668 54 27C53.9946 30.7332 53.2854 34.2432 51.8724 37.53C50.4594 40.8168 48.5361 43.6743 46.1025 46.1025C43.6689 48.5307 40.8114 50.4549 37.53 51.8751C34.2486 53.2953 30.7386 54.0036 27 54Z" fill="white"/>
</svg>
