<svg width="49" height="54" viewBox="0 0 49 54" fill="none" xmlns="http://www.w3.org/2000/svg">
<path d="M5.25 0C2.35156 0 0 2.59152 0 5.78571V48.2143C0 51.4085 2.35156 54 5.25 54H43.75C46.6484 54 49 51.4085 49 48.2143V5.78571C49 2.59152 46.6484 0 43.75 0H5.25ZM24.4977 7.71429C25.5198 7.71429 26.5419 7.96066 27.3132 8.45401L37.6665 15.0401C39.2133 16.0258 40.4826 18.4427 40.4826 20.4124V33.5873C40.4826 35.5577 39.2133 37.9754 37.6665 38.9606L27.3132 45.5484C26.542 46.0402 25.5198 46.2857 24.4977 46.2857C23.4801 46.2857 22.4573 46.0402 21.6861 45.5484L11.3329 38.9606C9.7837 37.9754 8.51736 35.5577 8.51736 33.5873V20.4125C8.51736 18.4427 9.7837 16.0258 11.3329 15.0402L21.6861 8.45401C22.4573 7.96066 23.48 7.71429 24.4977 7.71429ZM31.4969 18.9416C31.1877 18.9409 30.8909 19.0754 30.6715 19.3156L22.5399 28.2807C22.0836 28.7796 21.3446 28.7796 20.8929 28.2807L18.9351 26.1244C18.4833 25.6246 17.7396 25.6246 17.2879 26.1244L16.028 27.5108C15.6721 27.9046 15.5763 28.8271 16.028 29.326L20.8929 34.685C21.3446 35.184 22.0836 35.184 22.5399 34.685L33.5783 22.5185C34.0301 22.0191 34.0301 21.2019 33.5783 20.702L32.319 19.3156C32.2111 19.1966 32.0829 19.1022 31.9418 19.038C31.8007 18.9738 31.6496 18.9411 31.4969 18.9416Z" fill="white"/>
</svg>
