<svg width="49" height="56" viewBox="0 0 49 56" fill="none" xmlns="http://www.w3.org/2000/svg">
<path d="M33.32 50.3596L28.2436 45.1797L25.48 47.9997L33.32 55.9996L49 39.9997L46.2364 37.1797L33.32 50.3596Z" fill="white"/>
<path d="M39.2 5.99998H33.32V3.99999C33.3169 2.9401 32.9029 1.92452 32.1684 1.17507C31.434 0.425608 30.4387 0.00316544 29.4 0H13.72C12.6813 0.00316544 11.686 0.425608 10.9516 1.17507C10.2171 1.92452 9.8031 2.9401 9.8 3.99999V5.99998H3.92C2.88131 6.00315 1.88604 6.42559 1.15157 7.17505C0.417097 7.92451 0.00310214 8.94008 0 9.99997V51.9998C0.00310214 53.0597 0.417097 54.0753 1.15157 54.8248C1.88604 55.5742 2.88131 55.9967 3.92 55.9998H21.56V51.9998H3.92V9.99997H9.8V15.9999H33.32V9.99997H39.2V31.9999H43.12V9.99997C43.1169 8.94008 42.7029 7.92451 41.9684 7.17505C41.234 6.42559 40.2387 6.00315 39.2 5.99998ZM29.4 12H13.72V3.99999H29.4V12Z" fill="white"/>
</svg>
