<svg width="50" height="50" viewBox="0 0 50 50" fill="none" xmlns="http://www.w3.org/2000/svg">
<path d="M25 22.182C29.1076 22.182 32.4375 18.8623 32.4375 14.7672C32.4375 10.6722 29.1076 7.35254 25 7.35254C20.8924 7.35254 17.5625 10.6722 17.5625 14.7672C17.5625 18.8623 20.8924 22.182 25 22.182Z" fill="#2F608D"/>
<path d="M13.7188 15.5081H14.4688V14.8297C14.4733 12.8571 15.0245 10.9251 16.06 9.25229C17.0955 7.5795 18.574 6.23265 20.3282 5.36411C19.8088 4.15655 18.9753 3.11356 17.916 2.3459C16.8568 1.57825 15.6113 1.1146 14.3121 1.00419C13.0128 0.89379 11.7081 1.14076 10.5367 1.71886C9.36526 2.29697 8.37078 3.18463 7.65887 4.28756C6.94696 5.3905 6.54422 6.66752 6.49341 7.983C6.4426 9.29848 6.74562 10.6033 7.3703 11.7589C7.99497 12.9144 8.91796 13.8776 10.0413 14.546C11.1645 15.2145 12.4462 15.5633 13.75 15.5554L13.7188 15.5081ZM35.5625 14.7666V15.445H36.3125C37.599 15.4319 38.8582 15.069 39.9576 14.3943C41.057 13.7196 41.956 12.7581 42.5598 11.6111C43.1636 10.4641 43.45 9.17388 43.3889 7.87636C43.3277 6.57884 42.9212 5.32197 42.2122 4.23804C41.5032 3.15411 40.5178 2.28321 39.3599 1.71701C38.202 1.15082 36.9144 0.910264 35.6325 1.02067C34.3505 1.13108 33.1218 1.58837 32.0756 2.34441C31.0294 3.10044 30.2045 4.12726 29.6875 5.31678C31.4423 6.18193 32.9223 7.52536 33.9605 9.19527C34.9987 10.8652 35.5536 12.795 35.5625 14.7666ZM31.7031 22.9228C34.8098 23.5436 37.8136 24.6059 40.625 26.078C41.0211 26.2976 41.3798 26.5799 41.6875 26.9141H50V21.5187C50.0015 21.3118 49.947 21.1083 49.8424 20.9304C49.7377 20.7525 49.5869 20.6068 49.4063 20.509C45.3565 18.3703 40.8515 17.2603 36.2813 17.275H35.25C34.7085 19.4974 33.4631 21.4804 31.7031 22.9228ZM7.07815 29.9746C7.0753 29.1801 7.28782 28.3999 7.69269 27.7186C8.09756 27.0373 8.67934 26.4809 9.37503 26.1095C12.1864 24.6375 15.1902 23.5752 18.2969 22.9543C16.5454 21.5243 15.3008 19.5591 14.75 17.3538H13.7188C9.14851 17.3392 4.64354 18.4492 0.593781 20.5879C0.413106 20.6856 0.262305 20.8313 0.157663 21.0093C0.0530215 21.1872 -0.00148488 21.3906 3.07684e-05 21.5976V31.6784H7.07815V29.9746ZM30.4063 39.0774H39.7188V41.286H30.4063V39.0774Z" fill="#2F608D"/>
<path d="M48.1406 30.5114H37.4063V28.9338C37.4063 28.5154 37.2417 28.1141 36.9486 27.8183C36.6556 27.5224 36.2582 27.3562 35.8438 27.3562C35.4294 27.3562 35.0319 27.5224 34.7389 27.8183C34.4459 28.1141 34.2813 28.5154 34.2813 28.9338V30.5114H31.25V26.0468C29.1943 25.6109 27.1005 25.3837 25 25.3684C20.0684 25.3477 15.2072 26.5503 10.8438 28.8707C10.6494 28.9725 10.4867 29.1266 10.3737 29.3159C10.2606 29.5052 10.2016 29.7224 10.2032 29.9435V38.7938H21.3125V48.4014C21.3125 48.8198 21.4771 49.221 21.7702 49.5169C22.0632 49.8127 22.4606 49.9789 22.875 49.9789H48.1406C48.555 49.9789 48.9525 49.8127 49.2455 49.5169C49.5385 49.221 49.7031 48.8198 49.7031 48.4014V32.089C49.7031 31.6706 49.5385 31.2693 49.2455 30.9735C48.9525 30.6776 48.555 30.5114 48.1406 30.5114ZM46.5781 46.8553H24.4375V33.6666H34.2813V35.1022C34.2813 35.5206 34.4459 35.9219 34.7389 36.2177C35.0319 36.5136 35.4294 36.6798 35.8438 36.6798C36.2582 36.6798 36.6556 36.5136 36.9486 36.2177C37.2417 35.9219 37.4063 35.5206 37.4063 35.1022V33.6666H46.5781V46.8553Z" fill="#2F608D"/>
</svg>
